<svg aria-hidden="true" style="position:absolute;width:0;height:0;overflow:hidden" xmlns="http://www.w3.org/2000/svg">
  <defs>
  <!-- Logo -->
    <symbol id="icon-Logo" viewBox="0 0 96 32">
      <path fill="#fff" style="fill:var(--color1, #fff)" d="M17.25 14.9q.45-1.58.45-3.49 0-2.68-.87-4.66-.51-1.14-1.32-1.99-.6-.62-1.35-1.08-1.8-1.09-4.59-1.09-2.8 0-4.62 1.09-.81.49-1.44 1.16-.77.82-1.25 1.91-.87 1.97-.87 4.63 0 1.99.49 3.62t1.5 2.8q.18.21.37.41.9.88 2.16 1.39 1.54.63 3.64.63h.27l3.14 3.84h4.65l-4.13-4.6q1.13-.51 1.94-1.33.24-.23.44-.49.94-1.16 1.39-2.75zM38.18 20l4.36-17.14h-3.57l-2.18 9.35q-.13.57-.3 1.4t-.32 1.67-.23 1.42q-.04-.43-.14-1.02-.1-.6-.22-1.22t-.23-1.15-.19-.85l-2.5-9.6h-3.43l-2.5 9.6q-.09.33-.21.86-.12.52-.23 1.14-.11.61-.2 1.2-.1.6-.16 1.04-.04-.43-.14-1.02-.1-.6-.22-1.23l-.25-1.23q-.12-.58-.22-1.01l-2.19-9.35h-3.57L23.71 20h4.12l2.31-8.98q.07-.28.19-.82t.24-1.16.22-1.17.14-.88q.03.33.13.88.1.56.23 1.19.13.62.25 1.15.11.53.18.79l2.32 9h4.14zm6.76 0h9.86v-3h-6.23v-4.42h5.8V9.6h-5.8V5.84h6.23V2.86h-9.86V20zM67.46 3.42q-1.52-.56-3.85-.56h-4.99V20h3.63v-6.58h1.93L68.27 20h4.03l-5.03-7.47q.17-.08.33-.16.66-.35 1.24-.84.19-.16.36-.34.48-.5.81-1.14.44-.88.44-2.05 0-1.74-.73-2.88-.07-.09-.13-.18-.74-1-2.13-1.52zM5.65 14.49q-.45-1.29-.45-3.08 0-1.81.45-3.1.39-1.13 1.17-1.8.12-.11.25-.2.96-.69 2.5-.69 1.7 0 2.69.83.36.3.63.71 1 1.55 1 4.25 0 1.79-.44 3.08-.38 1.12-1.15 1.8-.12.1-.25.2-.96.69-2.5.69-1.53 0-2.49-.69l-.22-.18q-.79-.68-1.19-1.82zm56.6-8.65h1.1q1.76 0 2.6.51.24.15.41.35.43.52.43 1.39 0 .84-.4 1.39-.16.21-.38.38-.78.61-2.59.61h-1.17V5.84zm14.21 1.05h-3.92l5.21 13.01-.21.65q-.2.59-.53 1.09-.02.04-.05.07-.24.36-.56.61-.16.14-.34.24-.54.32-1.29.32-.41 0-.78-.05-.38-.05-.62-.1v2.83q.31.07.76.14.44.06 1.05.06 1.26 0 2.3-.46.19-.08.36-.17.83-.44 1.5-1.19.81-.91 1.31-2.27L86.2 6.89h-3.83l-2.43 7.37q-.19.54-.31 1.09-.12.56-.19 1.19h-.07q-.04-.42-.1-.81t-.14-.75-.2-.72l-2.47-7.37z"/>
    </symbol>
    <!-- Icons Search -->
    <symbol id="icon-Icons-serch" viewBox="0 0 32 32">
      <path fill="#fff" style="fill:var(--color1, #fff)" d="m24.896 26.128-7.616-7.616a7.995 7.995 0 0 1-10.752-1.36c-2.688-3.168-2.48-7.872.448-10.816a8.007 8.007 0 0 1 10.832-.448c3.168 2.672 3.76 7.344 1.36 10.736l7.616 7.632-1.888 1.872zM12.64 6.656a5.357 5.357 0 0 0-5.232 4.256 5.315 5.315 0 0 0 3.104 5.968 5.312 5.312 0 0 0 6.48-1.824 5.315 5.315 0 0 0-.464-6.704l.8.8-.912-.928a5.342 5.342 0 0 0-3.776-1.568z"/>
    </symbol>
    <!-- Icons Header -->
    <symbol id="icon-instagram" viewBox="0 0 32 32">
      <path fill="#fff" style="fill:var(--color1, #fff)" d="M10.4 2.667h11.2a7.73 7.73 0 0 1 7.733 7.733v11.2a7.739 7.739 0 0 1-7.733 7.733H10.4A7.73 7.73 0 0 1 2.667 21.6V10.4A7.721 7.721 0 0 1 10.4 2.667zm-.267 2.666a4.797 4.797 0 0 0-4.8 4.8v11.733c0 2.64 2.147 4.8 4.8 4.8h11.72c2.653 0 4.813-2.16 4.813-4.8V10.133c0-2.653-2.16-4.8-4.813-4.8h-11.72zm12.867 2c.92 0 1.667.733 1.667 1.667a1.668 1.668 0 0 1-3.334 0A1.65 1.65 0 0 1 23 7.333zm-7 2A6.66 6.66 0 0 1 22.667 16 6.67 6.67 0 0 1 16 22.667 6.661 6.661 0 0 1 9.333 16 6.652 6.652 0 0 1 16 9.333zM16 12c-2.213 0-4 1.787-4 4 0 2.2 1.787 4 4 4 2.2 0 4-1.8 4-4 0-2.213-1.8-4-4-4z"/>
    </symbol>
    <symbol id="icon-facebook" viewBox="0 0 32 32">
      <path fill="#fff" style="fill:var(--color1, #fff)" d="M19.987 7.747h2.68V2.88c-.467-.067-2.053-.213-3.907-.213-3.867 0-6.507 2.533-6.507 7.2v4.293H8v5.453h4.253v13.72h5.227v-13.72h4.08l.653-5.453H17.48V10.4c0-1.573.4-2.653 2.507-2.653z"/>
    </symbol>
    <symbol id="icon-twitter" viewBox="0 0 32 32">
      <path fill="#fff" style="fill:var(--color1, #fff)" d="M30.547 8.013a11.27 11.27 0 0 1-3.28.893 5.776 5.776 0 0 0 2.52-3.16 11.472 11.472 0 0 1-3.64 1.387 5.723 5.723 0 0 0-4.173-1.8c-3.16 0-5.72 2.56-5.72 5.72 0 .44.04.88.147 1.293-4.76-.227-8.973-2.507-11.8-5.973a5.676 5.676 0 0 0-.773 2.88 5.718 5.718 0 0 0 2.547 4.76 5.647 5.647 0 0 1-2.587-.72v.08c0 2.773 1.96 5.08 4.587 5.613-.48.12-.987.2-1.507.2-.373 0-.733-.04-1.08-.107.733 2.267 2.84 3.933 5.347 3.973a11.501 11.501 0 0 1-8.467 2.373 16.229 16.229 0 0 0 8.76 2.573c10.533 0 16.28-8.72 16.28-16.293 0-.24 0-.493-.013-.733a11.566 11.566 0 0 0 2.853-2.96z"/>
      <path fill="none" stroke="#fff" style="stroke:var(--color1, #fff)" stroke-width="1.333" d="M1.333.667h29.333c.368 0 .667.298.667.667v29.333a.667.667 0 0 1-.667.667H1.333a.667.667 0 0 1-.667-.667V1.334c0-.368.298-.667.667-.667z"/>
    </symbol>
    <!-- Icons Footer -->
    <symbol id="icon-footer-instagram" viewBox="0 0 30 32">
      <path fill="#fff" style="fill:var(--color1, #fff)" d="M9.469 0h11.363c5.229 0 9.469 4.478 9.469 10v12c0 5.522-4.24 10-9.469 10H9.469C4.24 32 0 27.522 0 22V10C0 4.478 4.24 0 9.469 0zm11.362 29c3.655 0 6.628-3.14 6.628-7V10c0-3.86-2.973-7-6.628-7H9.468C5.813 3 2.84 6.14 2.84 10v12c0 3.86 2.973 7 6.628 7h11.363z"/>
      <path fill="#fff" style="fill:var(--color1, #fff)" d="M7.575 16c0-4.418 3.392-8 7.575-8s7.575 3.582 7.575 8-3.392 8-7.575 8-7.575-3.582-7.575-8zm2.841 0c0 2.756 2.124 5 4.734 5s4.734-2.244 4.734-5c0-2.758-2.125-5-4.734-5s-4.734 2.242-4.734 5zM24.302 7.4c0 .589-.452 1.066-1.009 1.066s-1.009-.477-1.009-1.066c0-.589.452-1.066 1.009-1.066s1.009.477 1.009 1.066z"/>
    </symbol>
    <symbol id="icon-footer-facebook" viewBox="0 0 15 32">
      <path fill="#fff" style="fill:var(--color1, #fff)" d="M12.381 5.309h2.767V.224c-.485-.071-2.117-.225-4.032-.225-3.985 0-6.717 2.649-6.717 7.509v4.482H0v5.688h4.399v14.32h5.392v-14.32h4.221l.674-5.688H9.79V8.076c0-1.644.414-2.767 2.59-2.767z"/>
    </symbol>
    <symbol id="icon-footer-twitter" viewBox="0 0 37 32">
      <path fill="#fff" style="fill:var(--color1, #fff)" d="M37.284 3.781a15.281 15.281 0 0 1-4.398 1.273c1.575-.998 2.783-2.573 3.361-4.464a14.823 14.823 0 0 1-4.857 1.956C29.998.971 27.99-.001 25.811-.001c-4.227 0-7.641 3.623-7.641 8.074 0 .63.052 1.247.184 1.838C11.987 9.583 6.368 6.366 2.587 1.47A8.483 8.483 0 0 0 1.55 5.54c0 2.796 1.352 5.278 3.387 6.722-1.221-.026-2.429-.407-3.453-.998v.092c0 3.925 2.652 7.181 6.131 7.929-.63.184-1.3.263-2.009.263-.486 0-.985-.026-1.444-.131.985 3.19 3.794 5.54 7.142 5.619-2.599 2.153-5.908 3.44-9.479 3.44-.63 0-1.234-.026-1.825-.105a20.611 20.611 0 0 0 11.723 3.623c14.06 0 21.753-12.301 21.753-22.974 0-.354 0-.709-.026-1.05 1.523-1.129 2.796-2.547 3.833-4.188z"/>
    </symbol>

  </defs>
</svg>
