<svg width="24.000000" height="24.000000" viewBox="0 0 24 24" fill="none" xmlns="http://www.w3.org/2000/svg" xmlns:xlink="http://www.w3.org/1999/xlink">
	<desc>
			Created with Pixso.
	</desc>
	<defs>
		<clipPath id="clip5_24">
			<rect id="twitter" rx="-0.500000" width="23.000000" height="23.000000" transform="translate(0.500000 0.500000)" fill="white" fill-opacity="0"/>
		</clipPath>
	</defs>
	<g clip-path="url(#clip5_24)">
		<path id="Vector" d="M22.91 6.01C22.14 6.35 21.32 6.58 20.45 6.68C21.33 6.15 22.02 5.31 22.34 4.31C21.51 4.8 20.59 5.16 19.61 5.35C18.83 4.52 17.71 4 16.48 4C14.11 4 12.19 5.92 12.19 8.29C12.19 8.62 12.22 8.95 12.3 9.26C8.73 9.09 5.57 7.38 3.45 4.78C3.08 5.41 2.87 6.15 2.87 6.94C2.87 8.43 3.63 9.74 4.78 10.51C4.08 10.49 3.41 10.29 2.84 9.97C2.84 9.99 2.84 10.01 2.84 10.03C2.84 12.11 4.31 13.84 6.28 14.24C5.92 14.33 5.54 14.39 5.15 14.39C4.87 14.39 4.6 14.36 4.34 14.31C4.89 16.01 6.47 17.26 8.35 17.29C6.88 18.44 5.03 19.13 3.02 19.13C2.67 19.13 2.33 19.11 2 19.07C3.89 20.28 6.15 21 8.57 21C16.47 21 20.78 14.46 20.78 8.78C20.78 8.6 20.78 8.41 20.77 8.23C21.61 7.62 22.34 6.87 22.91 6.01Z" fill="#FFFFFF" fill-opacity="1.000000" fill-rule="nonzero"/>
	</g>
	<rect id="twitter" rx="-0.500000" width="23.000000" height="23.000000" transform="translate(0.500000 0.500000)" stroke="#FFFFFF" stroke-opacity="1.000000" stroke-width="1.000000"/>
</svg>
