<svg width="28.406250" height="24.375000" viewBox="0 0 28.4062 24.375" fill="none" xmlns="http://www.w3.org/2000/svg" xmlns:xlink="http://www.w3.org/1999/xlink">
	<desc>
			Created with Pixso.
	</desc>
	<defs/>
	<path id="Path" d="M28.4 2.88C27.35 3.37 26.22 3.69 25.05 3.85C26.25 3.09 27.17 1.89 27.61 0.45C26.48 1.16 25.24 1.66 23.91 1.94C22.85 0.74 21.32 0 19.66 0C16.44 0 13.84 2.76 13.84 6.15C13.84 6.63 13.88 7.1 13.98 7.55C9.13 7.3 4.85 4.85 1.97 1.12C1.47 2.04 1.18 3.09 1.18 4.22C1.18 6.35 2.21 8.24 3.76 9.34C2.83 9.32 1.91 9.03 1.13 8.58C1.13 8.6 1.13 8.62 1.13 8.65C1.13 11.64 3.15 14.12 5.8 14.69C5.32 14.83 4.81 14.89 4.27 14.89C3.9 14.89 3.52 14.87 3.17 14.79C3.92 17.22 6.06 19.01 8.61 19.07C6.63 20.71 4.11 21.69 1.39 21.69C0.91 21.69 0.45 21.67 0 21.61C2.57 23.37 5.63 24.37 8.93 24.37C19.64 24.37 25.5 15 25.5 6.87C25.5 6.6 25.5 6.33 25.48 6.07C26.64 5.21 27.61 4.13 28.4 2.88Z" fill="#FFFFFF" fill-opacity="1.000000" fill-rule="nonzero"/>
</svg>
