<svg width="84.807617" height="23.167969" viewBox="0 0 84.8076 23.168" fill="none" xmlns="http://www.w3.org/2000/svg" xmlns:xlink="http://www.w3.org/1999/xlink">
	<desc>
			Created with Pixso.
	</desc>
	<defs/>
	<path id="QWERy" d="M15.86 12.31Q16.31 10.72 16.31 8.81Q16.31 6.14 15.43 4.16Q14.93 3.01 14.11 2.16Q13.52 1.54 12.76 1.08Q10.96 0 8.17 0Q5.37 0 3.56 1.08Q2.74 1.57 2.12 2.24Q1.35 3.06 0.87 4.15Q0 6.12 0 8.78Q0 10.78 0.49 12.41Q0.98 14.03 1.98 15.21Q2.16 15.42 2.36 15.61Q3.26 16.49 4.52 17Q6.05 17.63 8.15 17.63L8.42 17.63L11.56 21.48L16.21 21.48L12.09 16.87Q13.21 16.36 14.03 15.54Q14.26 15.31 14.47 15.05Q15.41 13.89 15.86 12.31ZM36.79 17.4L41.15 0.26L37.57 0.26L35.39 9.62Q35.26 10.18 35.09 11.01Q34.92 11.84 34.78 12.68Q34.63 13.52 34.55 14.1Q34.5 13.67 34.4 13.08Q34.3 12.49 34.18 11.87Q34.07 11.25 33.96 10.71Q33.84 10.18 33.76 9.86L31.27 0.26L27.83 0.26L25.34 9.86Q25.24 10.19 25.13 10.72Q25.01 11.25 24.9 11.86Q24.79 12.48 24.69 13.07Q24.6 13.66 24.54 14.1Q24.49 13.67 24.39 13.08Q24.29 12.49 24.17 11.85Q24.05 11.21 23.92 10.62Q23.8 10.04 23.71 9.62L21.52 0.26L17.94 0.26L22.31 17.4L26.44 17.4L28.75 8.42Q28.82 8.14 28.93 7.6Q29.05 7.06 29.17 6.44Q29.3 5.82 29.4 5.27Q29.5 4.72 29.53 4.39Q29.57 4.72 29.67 5.27Q29.77 5.83 29.9 6.46Q30.02 7.08 30.14 7.61Q30.26 8.14 30.33 8.4L32.65 17.4L36.79 17.4ZM43.54 17.4L53.41 17.4L53.41 14.4L47.17 14.4L47.17 9.98L52.98 9.98L52.98 7L47.17 7L47.17 3.24L53.41 3.24L53.41 0.26L43.54 0.26L43.54 17.4ZM66.06 0.83Q64.55 0.26 62.22 0.26L57.22 0.26L57.22 17.4L60.86 17.4L60.86 10.82L62.79 10.82L66.88 17.4L70.91 17.4L65.87 9.93Q66.04 9.85 66.21 9.77Q66.86 9.42 67.44 8.94Q67.63 8.78 67.81 8.6Q68.29 8.09 68.61 7.45Q69.06 6.57 69.06 5.4Q69.06 3.66 68.32 2.53Q68.26 2.43 68.19 2.34Q67.46 1.34 66.06 0.83ZM4.25 11.9Q3.8 10.6 3.8 8.81Q3.8 7 4.25 5.71Q4.65 4.58 5.43 3.91Q5.55 3.81 5.67 3.72Q6.64 3.02 8.17 3.02Q9.87 3.02 10.87 3.85Q11.22 4.16 11.49 4.57Q12.5 6.11 12.5 8.81Q12.5 10.6 12.06 11.9Q11.68 13.02 10.91 13.69Q10.79 13.79 10.66 13.89Q9.7 14.58 8.15 14.58Q6.63 14.58 5.67 13.89Q5.55 13.8 5.45 13.71Q4.65 13.04 4.25 11.9ZM60.86 3.24L61.96 3.24Q63.72 3.24 64.55 3.76Q64.79 3.9 64.96 4.11Q65.39 4.62 65.39 5.49Q65.39 6.33 64.99 6.88Q64.83 7.1 64.61 7.27Q63.83 7.87 62.03 7.87L60.86 7.87L60.86 3.24ZM75.06 4.3L71.15 4.3L76.35 17.3L76.14 17.95Q75.95 18.54 75.62 19.04Q75.59 19.08 75.57 19.11Q75.33 19.47 75.01 19.73Q74.85 19.86 74.67 19.96Q74.13 20.28 73.38 20.28Q72.97 20.28 72.59 20.23Q72.22 20.19 71.97 20.13L71.97 22.96Q72.29 23.03 72.73 23.1Q73.18 23.16 73.79 23.16Q75.04 23.16 76.09 22.71Q76.27 22.63 76.45 22.53Q77.28 22.09 77.95 21.34Q78.76 20.43 79.26 19.07L84.8 4.3L80.97 4.3L78.54 11.67Q78.36 12.21 78.23 12.76Q78.11 13.31 78.04 13.94L77.97 13.94Q77.94 13.52 77.88 13.13Q77.82 12.75 77.74 12.38Q77.65 12.02 77.54 11.67L75.06 4.3Z" fill="#FFFFFF" fill-opacity="1.000000" fill-rule="evenodd"/>
</svg>
