<svg width="13.838867" height="13.839691" viewBox="0 0 13.8389 13.8397" fill="none" xmlns="http://www.w3.org/2000/svg" xmlns:xlink="http://www.w3.org/1999/xlink">
	<desc>
			Created with Pixso.
	</desc>
	<defs/>
	<path id="coolicon" d="M12.65 13.83L7.89 9.07C5.77 10.58 2.85 10.21 1.18 8.22C-0.5 6.24 -0.38 3.3 1.46 1.46C3.3 -0.38 6.24 -0.5 8.22 1.18C10.21 2.85 10.58 5.77 9.07 7.89L13.83 12.66L12.66 13.83L12.65 13.83ZM4.99 1.66C3.41 1.66 2.05 2.77 1.73 4.32C1.41 5.87 2.22 7.43 3.67 8.05C5.12 8.68 6.81 8.21 7.72 6.91C8.63 5.62 8.51 3.87 7.43 2.72L7.93 3.22L7.36 2.65L7.35 2.64C6.73 2.01 5.88 1.66 4.99 1.66Z" fill="#FFFFFF" fill-opacity="1.000000" fill-rule="nonzero"/>
</svg>
